<svg width="22" height="22" viewBox="0 0 22 22" fill="none" xmlns="http://www.w3.org/2000/svg">
<path d="M14.1771 4.55589C14.3676 4.5517 14.5547 4.60692 14.7123 4.71395C14.8699 4.82099 14.9903 4.97455 15.0566 5.15316C15.123 5.33176 15.132 5.52657 15.0826 5.71057C15.0331 5.89456 14.9275 6.05848 14.7805 6.17969L9.17125 10.985L14.7805 15.7887C14.8822 15.8634 14.9673 15.9583 15.0306 16.0675C15.0939 16.1767 15.134 16.2978 15.1484 16.4231C15.1627 16.5485 15.151 16.6755 15.114 16.7962C15.077 16.9168 15.0155 17.0286 14.9333 17.1244C14.8511 17.2201 14.75 17.2978 14.6364 17.3527C14.5227 17.4076 14.399 17.4385 14.2729 17.4433C14.1468 17.4482 14.021 17.4271 13.9035 17.3811C13.786 17.3351 13.6792 17.2653 13.5899 17.1762L7.16783 11.6815C7.06698 11.5954 6.986 11.4886 6.93047 11.3682C6.87494 11.2478 6.84618 11.1168 6.84618 10.9842C6.84618 10.8516 6.87494 10.7206 6.93047 10.6002C6.986 10.4798 7.06698 10.3728 7.16783 10.2868L13.5899 4.7868C13.7521 4.6427 13.9602 4.56099 14.1771 4.55589Z" fill="#525252"/>
</svg>
