<svg width="24" height="24" viewBox="0 0 24 24" fill="none" xmlns="http://www.w3.org/2000/svg">
<path d="M18.333 8.33594H14.333" stroke="black" stroke-width="1.5" stroke-miterlimit="10" stroke-linecap="round" stroke-linejoin="round"/>
<path d="M7.66667 8.33594H5" stroke="black" stroke-width="1.5" stroke-miterlimit="10" stroke-linecap="round" stroke-linejoin="round"/>
<path d="M10.3333 10.6667C11.622 10.6667 12.6667 9.622 12.6667 8.33333C12.6667 7.04467 11.622 6 10.3333 6C9.04467 6 8 7.04467 8 8.33333C8 9.622 9.04467 10.6667 10.3333 10.6667Z" stroke="black" stroke-width="1.5" stroke-miterlimit="10" stroke-linecap="round" stroke-linejoin="round"/>
<path d="M18.3337 15.668H15.667" stroke="black" stroke-width="1.5" stroke-miterlimit="10" stroke-linecap="round" stroke-linejoin="round"/>
<path d="M9 15.668H5" stroke="black" stroke-width="1.5" stroke-miterlimit="10" stroke-linecap="round" stroke-linejoin="round"/>
<path d="M13.0003 17.9987C14.289 17.9987 15.3337 16.954 15.3337 15.6654C15.3337 14.3767 14.289 13.332 13.0003 13.332C11.7117 13.332 10.667 14.3767 10.667 15.6654C10.667 16.954 11.7117 17.9987 13.0003 17.9987Z" stroke="black" stroke-width="1.5" stroke-miterlimit="10" stroke-linecap="round" stroke-linejoin="round"/>
</svg>
