<svg width="13" height="13" viewBox="0 0 13 13" fill="none" xmlns="http://www.w3.org/2000/svg">
<path d="M5.36007 0.593004C5.71243 -0.197483 6.83445 -0.197484 7.18681 0.593004L8.24869 2.97524C8.39402 3.30127 8.70211 3.52511 9.05709 3.56258L11.6509 3.83634C12.5116 3.92718 12.8583 4.99428 12.2154 5.57367L10.2779 7.31973C10.0127 7.55869 9.89502 7.92088 9.96908 8.27007L10.5102 10.8215C10.6898 11.6681 9.78209 12.3276 9.03238 11.8952L6.77306 10.5921C6.46385 10.4138 6.08302 10.4138 5.77381 10.5921L3.51449 11.8952C2.76479 12.3276 1.85706 11.6681 2.03663 10.8215L2.57779 8.27007C2.65186 7.92088 2.53417 7.55869 2.26901 7.31973L0.33151 5.57367C-0.311403 4.99428 0.0353183 3.92718 0.896002 3.83634L3.48978 3.56258C3.84476 3.52511 4.15286 3.30127 4.29819 2.97524L5.36007 0.593004Z" fill="#FFD800"/>
</svg>
