<svg width="20" height="20" viewBox="0 0 20 20" fill="none" xmlns="http://www.w3.org/2000/svg">
<path d="M12.75 4.00003C12.9672 4.00003 13.1429 4.18192 13.1429 4.40627L13.1429 15.613L14.8294 13.869C14.9829 13.7103 15.2315 13.7103 15.3849 13.869C15.4616 13.9483 15.5 14.0523 15.5 14.1562C15.5 14.2601 15.4616 14.3641 15.3849 14.4435L13.0278 16.8809C12.8742 17.0397 12.6257 17.0397 12.4723 16.8809L10.1151 14.4435C9.96161 14.2847 9.96161 14.0277 10.1151 13.869C10.2686 13.7104 10.5172 13.7103 10.6706 13.869L12.3572 15.613L12.3572 4.40627C12.3572 4.18192 12.5329 4.00003 12.75 4.00003ZM6.97227 4.11906L4.61513 6.55655C4.46162 6.71529 4.46162 6.97234 4.61513 7.13098C4.76864 7.28962 5.01722 7.28972 5.17063 7.13098L6.85716 5.38696L6.85716 16.5937C6.85716 16.8181 7.03287 17 7.25002 17C7.46717 17 7.64287 16.8181 7.64287 16.5937L7.64287 5.38696L9.32941 7.13098C9.48292 7.28972 9.7315 7.28972 9.88491 7.13098C9.96161 7.05166 10 6.94766 10 6.84376C10 6.73987 9.96161 6.63587 9.88491 6.55655L7.52777 4.11906C7.37436 3.96031 7.12568 3.96031 6.97227 4.11906Z" fill="black"/>
</svg>
