<svg width="28" height="28" viewBox="0 0 28 28" fill="none" xmlns="http://www.w3.org/2000/svg">
<rect width="28" height="28" rx="4" transform="matrix(-1 0 0 1 28 0)" fill="#A78BFA"/>
<path fill-rule="evenodd" clip-rule="evenodd" d="M19.6753 15.7163H15.7327C16.058 14.7401 16.2309 13.9184 16.2594 13.2178C16.3267 11.565 15.5463 10.9108 14.8798 10.6528C14.8519 10.6418 14.8229 10.634 14.7933 10.6296C14.2769 10.548 14.093 10.7909 13.9712 11.0655L13.9552 11.1015C13.9374 11.1409 13.9257 11.1829 13.9207 11.2259C13.7559 12.6358 13.1538 13.9588 12.1989 15.0092V22.886C12.3054 22.925 12.4142 22.9575 12.5247 22.9832C12.5546 22.9902 12.5852 22.994 12.6159 22.9945C12.946 22.998 13.3394 22.9998 13.7931 22.9998C14.2457 22.9998 14.7582 22.998 15.3269 22.9945H19.0411C19.2583 22.9945 19.4715 22.9369 19.6591 22.8274C19.8467 22.718 20.0018 22.5607 20.1087 22.3716C20.2155 22.1825 20.2702 21.9684 20.2671 21.7513C20.264 21.5341 20.2033 21.3217 20.0912 21.1357C20.3391 20.9479 20.5063 20.6728 20.5587 20.3663C20.6112 20.0598 20.545 19.7447 20.3737 19.4852C20.6142 19.2812 20.7668 18.9923 20.7996 18.6786C20.8324 18.3649 20.7429 18.0506 20.5498 17.8012C20.7191 17.629 20.8338 17.4105 20.8795 17.1733C20.9251 16.9361 20.8995 16.6907 20.8061 16.4679C20.7127 16.2451 20.5555 16.055 20.3543 15.9213C20.1531 15.7876 19.9168 15.7163 19.6753 15.7165V15.7163ZM11.3746 8.64503C11.3497 8.56809 11.3031 8.49995 11.2406 8.4487C11.178 8.39745 11.102 8.36525 11.0217 8.35594L9.86995 8.22343L9.38831 7.16973C9.35484 7.09603 9.30085 7.03353 9.23281 6.9897C9.16476 6.94587 9.08553 6.92256 9.00458 6.92256C8.92364 6.92256 8.84441 6.94587 8.77636 6.9897C8.70831 7.03353 8.65432 7.09603 8.62085 7.16973L8.13921 8.22343L6.98753 8.35594C6.90718 8.36516 6.83118 8.39729 6.76857 8.44848C6.70597 8.49968 6.6594 8.5678 6.63441 8.64472C6.60942 8.72163 6.60707 8.80411 6.62764 8.88233C6.6482 8.96055 6.69081 9.0312 6.7504 9.08589L7.60406 9.86987L7.37425 11.006C7.35837 11.0852 7.36555 11.1673 7.39494 11.2426C7.42433 11.3179 7.47469 11.3831 7.54004 11.4306C7.6054 11.4781 7.683 11.5059 7.76366 11.5106C7.84431 11.5153 7.92463 11.4968 7.99507 11.4572L9.00448 10.8873L10.0141 11.4572C10.0845 11.497 10.1649 11.5156 10.2456 11.511C10.3263 11.5064 10.404 11.4786 10.4695 11.4311C10.5349 11.3835 10.5852 11.3182 10.6146 11.2429C10.6439 11.1675 10.651 11.0853 10.6349 11.0061L10.4051 9.86991L11.2588 9.08592C11.3183 9.03127 11.3609 8.96065 11.3814 8.8825C11.4019 8.80434 11.3996 8.72192 11.3746 8.64506L11.3746 8.64503ZM22.3657 8.64503C22.3907 8.72188 22.393 8.80429 22.3725 8.88245C22.352 8.96061 22.3094 9.03123 22.2499 9.08589L21.3962 9.86987L21.626 11.006C21.642 11.0853 21.635 11.1675 21.6056 11.2428C21.5763 11.3182 21.5259 11.3835 21.4605 11.431C21.3951 11.4786 21.3174 11.5063 21.2367 11.5109C21.156 11.5156 21.0756 11.4969 21.0052 11.4572L19.9958 10.8873L18.9863 11.4572C18.9159 11.4969 18.8355 11.5156 18.7548 11.511C18.6741 11.5063 18.5964 11.4786 18.531 11.431C18.4655 11.3835 18.4152 11.3182 18.3858 11.2428C18.3565 11.1675 18.3494 11.0853 18.3655 11.006L18.5953 9.86987L17.7416 9.08589C17.6821 9.0312 17.6394 8.96055 17.6189 8.88233C17.5983 8.80411 17.6007 8.72163 17.6257 8.64472C17.6506 8.5678 17.6972 8.49968 17.7598 8.44848C17.8224 8.39729 17.8984 8.36516 17.9788 8.35594L19.1301 8.22343L19.612 7.16973C19.6454 7.09604 19.6994 7.03354 19.7674 6.98971C19.8355 6.94588 19.9147 6.92257 19.9956 6.92257C20.0766 6.92257 20.1558 6.94588 20.2238 6.98971C20.2919 7.03354 20.3459 7.09604 20.3793 7.16973L20.8612 8.22343L22.0126 8.35594C22.0929 8.36524 22.1689 8.39743 22.2315 8.44868C22.2941 8.49993 22.3406 8.56809 22.3655 8.64503H22.3657ZM17.3398 7.06366C17.3148 6.98664 17.2683 6.91838 17.2057 6.86695C17.1432 6.81552 17.0672 6.78306 16.9868 6.77341L15.5041 6.60424L14.8838 5.24573C14.8499 5.17245 14.7958 5.11039 14.7278 5.06689C14.6598 5.02339 14.5808 5.00027 14.5 5.00027C14.4193 5.00027 14.3403 5.02339 14.2723 5.06689C14.2043 5.11039 14.1502 5.17245 14.1163 5.24573L13.4959 6.60414L12.0133 6.77331C11.933 6.78273 11.8571 6.81499 11.7946 6.86625C11.7321 6.91751 11.6856 6.98563 11.6606 7.06253C11.6356 7.13942 11.6333 7.22186 11.6537 7.30007C11.6742 7.37827 11.7167 7.44896 11.7762 7.50375L12.8754 8.51351L12.5794 9.97601C12.5634 10.0552 12.5705 10.1374 12.5999 10.2127C12.6292 10.2881 12.6796 10.3533 12.745 10.4009C12.8104 10.4484 12.8881 10.4761 12.9688 10.4807C13.0495 10.4853 13.1298 10.4667 13.2002 10.427L14.5 9.69377L15.7998 10.427C15.8702 10.4667 15.9506 10.4854 16.0313 10.4808C16.112 10.4761 16.1896 10.4484 16.255 10.4009C16.3204 10.3534 16.3708 10.2881 16.4002 10.2128C16.4295 10.1375 16.4366 10.0553 16.4206 9.97608L16.1247 8.51358L17.2239 7.50375C17.2834 7.44922 17.326 7.37873 17.3466 7.30069C17.3671 7.22264 17.3648 7.14033 17.34 7.06356L17.3398 7.06366ZM11.3552 15.7926C11.2809 15.6745 11.1778 15.5771 11.0557 15.5096C10.9336 15.4421 10.7963 15.4067 10.6568 15.4066H7.74486C7.52596 15.4068 7.31608 15.4939 7.16127 15.6486C7.00646 15.8034 6.91937 16.0132 6.91911 16.2321V22.1738C6.9193 22.3928 7.00634 22.6028 7.16115 22.7577C7.31596 22.9125 7.52588 22.9997 7.74486 23H10.6568C10.7963 22.9999 10.9335 22.9645 11.0556 22.8971C11.1778 22.8296 11.2808 22.7323 11.3552 22.6143V15.7926ZM7.98614 16.9563C7.98614 16.8444 8.03059 16.7371 8.10971 16.658C8.18882 16.5789 8.29613 16.5344 8.40802 16.5344H8.71764C8.82953 16.5344 8.93683 16.5789 9.01595 16.658C9.09506 16.7371 9.13951 16.8444 9.13951 16.9563C9.13951 17.0682 9.09506 17.1755 9.01595 17.2546C8.93683 17.3337 8.82953 17.3782 8.71764 17.3782H8.40805C8.35265 17.3782 8.29778 17.3673 8.2466 17.3461C8.19541 17.3249 8.1489 17.2938 8.10972 17.2546C8.07054 17.2154 8.03946 17.1689 8.01826 17.1177C7.99705 17.0665 7.98614 17.0117 7.98614 16.9563Z" fill="white"/>
</svg>
